<?xml version="1.0" standalone="no"?><!DOCTYPE svg PUBLIC "-//W3C//DTD SVG 1.1//EN" "http://www.w3.org/Graphics/SVG/1.1/DTD/svg11.dtd"><svg t="1632289912602" class="icon" viewBox="0 0 1024 1024" version="1.1" xmlns="http://www.w3.org/2000/svg" p-id="10204" xmlns:xlink="http://www.w3.org/1999/xlink" width="200" height="200"><defs><style type="text/css"></style></defs><path d="M512 0a512 512 0 1 0 512 512A512 512 0 0 0 512 0zM393.148852 271.150164L508.39082 159.47541a21.99082 21.99082 0 0 1 16.199344-7.134426 22.830164 22.830164 0 0 1 16.199344 7.134426l115.241967 111.632787a21.99082 21.99082 0 0 1 7.050492 16.241311 22.830164 22.830164 0 0 1-7.21836 16.199344l-113.311476 117.046558a17.542295 17.542295 0 0 1-16.199344 7.21836 22.830164 22.830164 0 0 1-16.199344-7.21836L394.953443 303.59082a19.556721 19.556721 0 0 1-7.218361-16.199345 34.161311 34.161311 0 0 1 5.41377-16.241311z m446.531148 498.780328a26.817049 26.817049 0 0 1-7.218361 16.199344 21.99082 21.99082 0 0 1-16.199344 7.218361h-143.989508a26.817049 26.817049 0 0 1-16.199344-7.218361 21.99082 21.99082 0 0 1-7.218361-16.199344V591.737705a26.817049 26.817049 0 0 1 7.218361-16.199344 21.99082 21.99082 0 0 1 16.199344-7.218361h45.03082v-45.072787a26.775082 26.775082 0 0 0-7.218361-16.199344 21.99082 21.99082 0 0 0-16.199344-7.218361H366.163934a26.775082 26.775082 0 0 0-16.199344 7.218361 21.99082 21.99082 0 0 0-7.21836 16.199344v45.03082h10.785573a26.817049 26.817049 0 0 1 16.199345 7.21836 21.99082 21.99082 0 0 1 7.21836 16.241312v178.276721a26.817049 26.817049 0 0 1-7.21836 16.199344 21.99082 21.99082 0 0 1-16.199345 6.966558H207.695738a26.817049 26.817049 0 0 1-16.199345-7.218361 21.99082 21.99082 0 0 1-7.21836-16.199344V591.737705a26.817049 26.817049 0 0 1 7.21836-16.199344 21.99082 21.99082 0 0 1 16.199345-7.218361h66.643934v-100.721311a26.817049 26.817049 0 0 1 7.218361-16.199345 21.99082 21.99082 0 0 1 16.199344-7.21836h450.140328a26.817049 26.817049 0 0 1 16.199344 7.21836 21.99082 21.99082 0 0 1 7.218361 16.199345v100.721311h45.03082a26.817049 26.817049 0 0 1 16.199344 7.218361 21.99082 21.99082 0 0 1 7.21836 16.199344z" p-id="10205" fill="#409EFF"></path></svg>