<?xml version="1.0" standalone="no"?><!DOCTYPE svg PUBLIC "-//W3C//DTD SVG 1.1//EN" "http://www.w3.org/Graphics/SVG/1.1/DTD/svg11.dtd"><svg t="1632380364241" class="icon" viewBox="0 0 1024 1024" version="1.1" xmlns="http://www.w3.org/2000/svg" p-id="21278" xmlns:xlink="http://www.w3.org/1999/xlink" width="200" height="200"><defs><style type="text/css"></style></defs><path d="M512.007498-38.497903m90.509668 90.509668l369.369955 369.369955q90.509668 90.509668 0 181.019336l-369.369955 369.369955q-90.509668 90.509668-181.019336 0l-369.369955-369.369955q-90.509668-90.509668 0-181.019336l369.369955-369.369955q90.509668-90.509668 181.019336 0Z" fill="#409EFF" p-id="21279" data-spm-anchor-id="a313x.7781069.0.i18" class="selected"></path><path d="M565.888 536.832V814.08a17.92 17.92 0 0 1-17.92 17.92 18.944 18.944 0 0 1-13.824-5.12L462.208 755.2a17.664 17.664 0 0 1-5.12-12.8V535.552L271.744 350.464a17.92 17.92 0 0 1 0-25.6 18.432 18.432 0 0 1 12.8-5.12h455.168a17.92 17.92 0 0 1 17.664 18.176 18.432 18.432 0 0 1-5.12 12.8z m39.168-158.208l-90.368 90.624a17.024 17.024 0 0 0 0 21.76 15.872 15.872 0 0 0 20.736 0l90.368-90.368a15.104 15.104 0 0 0-20.736-22.016z" fill="#FFFFFF" p-id="21280"></path></svg>