<?xml version="1.0" standalone="no"?><!DOCTYPE svg PUBLIC "-//W3C//DTD SVG 1.1//EN" "http://www.w3.org/Graphics/SVG/1.1/DTD/svg11.dtd"><svg t="1632394427113" class="icon" viewBox="0 0 1024 1024" version="1.1" xmlns="http://www.w3.org/2000/svg" p-id="29554" xmlns:xlink="http://www.w3.org/1999/xlink" width="200" height="200"><defs><style type="text/css"></style></defs><path d="M877.714286 73.142857a73.142857 73.142857 0 0 1 73.142857 73.142857v804.571429a73.142857 73.142857 0 0 1-73.142857 73.142857H73.142857a73.142857 73.142857 0 0 1-73.142857-73.142857V146.285714a73.142857 73.142857 0 0 1 73.142857-73.142857h804.571429z m-36.571429 219.428572h-731.428571a36.571429 36.571429 0 0 0-35.986286 29.988571L73.142857 329.142857v585.142857a36.571429 36.571429 0 0 0 29.988572 35.986286L109.714286 950.857143h731.428571a36.571429 36.571429 0 0 0 35.986286-29.988572L877.714286 914.285714v-585.142857a36.571429 36.571429 0 0 0-36.571429-36.571428z m0-146.285715a36.571429 36.571429 0 1 0 0 73.142857 36.571429 36.571429 0 0 0 0-73.142857z m-146.285714 0a36.571429 36.571429 0 1 0 0 73.142857 36.571429 36.571429 0 0 0 0-73.142857z" fill="#4C5D7C" p-id="29555"></path><path d="M475.428571 365.714286a256 256 0 1 1 0 512 256 256 0 0 1 0-512z m38.765715 292.571428H438.637714c3.657143 46.006857 12.434286 94.646857 26.331429 145.92a148.992 148.992 0 0 0 23.04 0c13.897143-51.419429 22.674286-99.986286 26.331428-145.92zM365.275429 658.285714H296.228571c10.532571 51.931429 43.008 95.817143 87.332572 121.563429A828.269714 828.269714 0 0 1 365.275429 658.285714zM654.628571 658.285714h-66.998857c-2.779429 38.619429-8.777143 78.628571-17.993143 120.100572A182.637714 182.637714 0 0 0 654.628571 658.285714zM381.220571 464.969143l-4.534857 2.779428a183.003429 183.003429 0 0 0-80.457143 117.467429L363.885714 585.142857c1.536-41.984 7.314286-82.066286 17.334857-120.173714zM475.428571 438.857143l-9.069714 0.292571-2.56 6.582857A462.555429 462.555429 0 0 0 437.101714 585.142857h78.701715a454.948571 454.948571 0 0 0-34.011429-157.988571l4.681143 12.068571C482.816 439.003429 479.158857 438.857143 475.428571 438.857143z m96.475429 27.501714l3.949714 16.018286c7.387429 32.914286 11.776 67.145143 13.165715 102.765714h65.609142A183.076571 183.076571 0 0 0 571.977143 466.432z" fill="#1476BB" p-id="29556"></path></svg>